<svg xmlns="http://www.w3.org/2000/svg" viewBox="0 0 24 24" fill="#cfa777">
  <path d="M12 0C5.373 0 0 5.373 0 12s5.373 12 12 12 12-5.373 12-12S18.627 0 12 0zm0 2.182c5.423 0 9.818 4.395 9.818 9.818 0 5.423-4.395 9.818-9.818 9.818-5.423 0-9.818-4.395-9.818-9.818 0-5.423 4.395-9.818 9.818-9.818zM12 5.09c-2.428 0-4.364 1.936-4.364 4.364 0 1.214.5 2.31 1.304 3.099l-.927 2.784c-.046.138.046.276.184.322.046.023.092.023.138.023.092 0 .184-.046.23-.138l.927-2.785c.46.184.965.276 1.508.276s1.048-.092 1.508-.276l.927 2.785c.046.092.138.138.23.138.046 0 .092 0 .138-.023.138-.046.23-.184.184-.322l-.927-2.784c.804-.789 1.304-1.885 1.304-3.099 0-2.428-1.936-4.364-4.364-4.364zm0 1.455c1.606 0 2.909 1.303 2.909 2.909 0 .804-.322 1.532-.85 2.06-.527.529-1.256.85-2.059.85s-1.532-.321-2.06-.85c-.528-.528-.849-1.256-.849-2.06 0-1.606 1.303-2.909 2.909-2.909zm0 1.09c-.368 0-.727.092-1.048.253.092.138.138.299.138.46 0 .506-.414.92-.92.92-.161 0-.322-.046-.46-.138-.161.321-.253.68-.253 1.048 0 1.351 1.103 2.454 2.454 2.454 1.351 0 2.454-1.103 2.454-2.454S13.351 7.635 12 7.635zm0 5.363c-.23 0-.414.184-.414.414v3.545c0 .23.184.414.414.414.23 0 .414-.184.414-.414v-3.545c0-.23-.184-.414-.414-.414z"/>
</svg>
